<svg width="72" height="72" viewBox="0 0 72 72" fill="none" xmlns="http://www.w3.org/2000/svg">
  <path d="M36 4C24.402 4 15 13.402 15 25C15 40.75 36 68 36 68C36 68 57 40.75 57 25C57 13.402 47.598 4 36 4Z" fill="#2F80ED"/>
  <circle cx="36" cy="25" r="16" fill="white"/>
  <path d="M28.25 29.25C27.2835 29.25 26.5 30.0335 26.5 31V34.5C26.5 35.0523 26.9477 35.5 27.5 35.5H29C29.5523 35.5 30 35.0523 30 34.5V33.5H42V34.5C42 35.0523 42.4477 35.5 43 35.5H44.5C45.0523 35.5 45.5 35.0523 45.5 34.5V31C45.5 30.0335 44.7165 29.25 43.75 29.25H43.0833L41.6153 25.5798C41.2738 24.7261 40.447 24.1667 39.5274 24.1667H32.4726C31.553 24.1667 30.7262 24.7261 30.3847 25.5798L28.9167 29.25H28.25ZM32.3021 26.5H39.6979C40.0032 26.5 40.2777 26.6857 40.3911 26.9692L41.3036 29.25H30.6964L31.6089 26.9692C31.7223 26.6857 31.9968 26.5 32.3021 26.5ZM30.3333 32.3333C29.689 32.3333 29.1667 31.811 29.1667 31.1667C29.1667 30.5223 29.689 30 30.3333 30C30.9777 30 31.5 30.5223 31.5 31.1667C31.5 31.811 30.9777 32.3333 30.3333 32.3333ZM41.6667 32.3333C41.0223 32.3333 40.5 31.811 40.5 31.1667C40.5 30.5223 41.0223 30 41.6667 30C42.311 30 42.8333 30.5223 42.8333 31.1667C42.8333 31.811 42.311 32.3333 41.6667 32.3333Z" fill="#2F80ED"/>
</svg>
